Run_20002
nRows=4
nColumns=164

# SIMM Motion File Header:
name Run_20002
datacolumns 164
datarows 4
otherdata 1
range 1.43333300 1.45833300
endheader
time	pelvis_tilt	pelvis_list	pelvis_rotation	pelvis_tx	pelvis_ty	pelvis_tz	hip_flexion_r	hip_adduction_r	hip_rotation_r	knee_angle_r	ankle_angle_r	hip_flexion_l	hip_adduction_l	hip_rotation_l	knee_angle_l	ankle_angle_l	lumbar_extension	lumbar_bending	lumbar_rotation	arm_flex_r	arm_add_r	arm_rot_r	elbow_flex_r	pro_sup_r	arm_flex_l	arm_add_l	arm_rot_l	elbow_flex_l	pro_sup_l	subtalar_angle_r	mtp_angle_r	subtalar_angle_l	mtp_angle_l	wrist_flex_r	wrist_dev_r	wrist_flex_l	wrist_dev_l	LASI_tx	LASI_ty	LASI_tz	RASI_tx	RASI_ty	RASI_tz	LPSI_tx	LPSI_ty	LPSI_tz	RPSI_tx	RPSI_ty	RPSI_tz	RTH1_tx	RTH1_ty	RTH1_tz	RTH2_tx	RTH2_ty	RTH2_tz	RTH3_tx	RTH3_ty	RTH3_tz	LTH1_tx	LTH1_ty	LTH1_tz	LTH2_tx	LTH2_ty	LTH2_tz	LTH3_tx	LTH3_ty	LTH3_tz	RTB1_tx	RTB1_ty	RTB1_tz	RTB2_tx	RTB2_ty	RTB2_tz	RTB3_tx	RTB3_ty	RTB3_tz	LTB1_tx	LTB1_ty	LTB1_tz	LTB2_tx	LTB2_ty	LTB2_tz	LTB3_tx	LTB3_ty	LTB3_tz	RCAL_tx	RCAL_ty	RCAL_tz	RTOE_tx	RTOE_ty	RTOE_tz	RMT5_tx	RMT5_ty	RMT5_tz	LCAL_tx	LCAL_ty	LCAL_tz	LTOE_tx	LTOE_ty	LTOE_tz	LMT5_tx	LMT5_ty	LMT5_tz	LACR_tx	LACR_ty	LACR_tz	RACR_tx	RACR_ty	RACR_tz	CLAV_tx	CLAV_ty	CLAV_tz	C7_tx	C7_ty	C7_tz	RUA1_tx	RUA1_ty	RUA1_tz	RUA2_tx	RUA2_ty	RUA2_tz	RUA3_tx	RUA3_ty	RUA3_tz	RLEL_tx	RLEL_ty	RLEL_tz	RMEL_tx	RMEL_ty	RMEL_tz	LUA1_tx	LUA1_ty	LUA1_tz	LUA2_tx	LUA2_ty	LUA2_tz	LUA3_tx	LUA3_ty	LUA3_tz	LLEL_tx	LLEL_ty	LLEL_tz	LMEL_tx	LMEL_ty	LMEL_tz	RFAsuperior_tx	RFAsuperior_ty	RFAsuperior_tz	RFAradius_tx	RFAradius_ty	RFAradius_tz	RFAulna_tx	RFAulna_ty	RFAulna_tz	LFAsuperior_tx	LFAsuperior_ty	LFAsuperior_tz	LFAradius_tx	LFAradius_ty	LFAradius_tz	LFAulna_tx	LFAulna_ty	LFAulna_tz
      1.43333300	      0.22997798	      7.53060821	      2.68739605	      0.91801838	      1.04775856	     -0.33665123	      7.27543426	     -4.65164688	      1.98210327	    -78.92419408	      1.68054202	     24.03261177	     12.43672244	     -1.50236964	    -37.69038898	     16.13574614	    -15.99418075	    -10.05816345	     -2.56578465	    -15.16616198	    -20.79739657	      4.82751197	    114.02627619	    108.53508843	    -22.53974953	    -24.18338975	      6.10792868	    110.85685792	     96.44680831	      0.00000000	      0.00000000	      0.00000000	      0.00000000	      0.00000000	      0.00000000	      0.00000000	      0.00000000	      0.90903691	      1.06839942	     -0.46278237	      0.92448871	      1.05238717	     -0.20422580	      0.72861609	      1.09507777	     -0.36477789	      0.73512618	      1.08425173	     -0.28326760	      0.86972048	      0.87309030	     -0.16547387	      0.91553669	      0.76691212	     -0.17848485	      0.84483595	      0.65423537	     -0.19889638	      0.88800457	      0.86265839	     -0.51456248	      0.98227337	      0.76295328	     -0.49893438	      0.95398562	      0.63919283	     -0.47300523	      0.77891705	      0.41238691	     -0.27484966	      0.71155185	      0.40497308	     -0.20286003	      0.64631733	      0.32804265	     -0.26901621	      1.02823329	      0.41632398	     -0.39313566	      0.99238076	      0.33091408	     -0.44347800	      0.98499580	      0.22130819	     -0.37003959	      0.44183166	      0.40369146	     -0.26618056	      0.49241689	      0.17600941	     -0.27586170	      0.44832097	      0.23254112	     -0.18690145	      0.85059304	      0.09854115	     -0.35561358	      1.08503166	      0.07909782	     -0.33926123	      1.01449184	      0.05511104	     -0.42967666	      0.90702726	      1.51838729	     -0.52419301	      0.92015433	      1.54076472	     -0.18032390	      0.96127781	      1.47180764	     -0.32004968	      0.83978127	      1.56762035	     -0.34795854	      0.89791390	      1.43877467	     -0.09834790	      0.88589713	      1.34903547	     -0.09858043	      0.81848481	      1.35785137	     -0.05666303	      0.78900432	      1.22766283	     -0.00626544	      0.74265338	      1.22026235	     -0.07803234	      0.87072924	      1.43557466	     -0.59805276	      0.86507241	      1.36399894	     -0.59488861	      0.76829838	      1.37211781	     -0.59020986	      0.72553928	      1.21789416	     -0.65267071	      0.68022267	      1.21742954	     -0.57766998	      0.88981219	      1.20851286	     -0.04308567	      1.01123476	      1.20280415	     -0.17605587	      1.01691339	      1.14627228	     -0.12767053	      0.81573415	      1.18968405	     -0.62811606	      0.95378942	      1.16445278	     -0.50902327	      0.94272024	      1.09886791	     -0.53758328
      1.44166700	      0.71575854	      8.26122237	      2.73010352	      0.91575051	      1.04365402	     -0.33587350	      8.64655374	     -5.29264586	      2.41328741	    -81.80317120	      2.62653073	     23.74675528	     13.00234410	     -2.00274102	    -39.75448524	     17.30023183	    -16.81761117	    -11.05142004	     -3.72312340	    -15.12017098	    -19.91991993	      5.12261819	    110.81066163	    109.47895325	    -20.63851928	    -24.72007230	      6.49860647	    109.37174017	     96.44335114	      0.00000000	      0.00000000	      0.00000000	      0.00000000	      0.00000000	      0.00000000	      0.00000000	      0.00000000	      0.90691788	      1.06520890	     -0.46227011	      0.92303781	      1.04694952	     -0.20257046	      0.72675327	      1.09024036	     -0.36298315	      0.73321769	      1.07882181	     -0.28226082	      0.87171599	      0.86839161	     -0.16569007	      0.92038465	      0.76434528	     -0.17857429	      0.85273783	      0.64966194	     -0.20038260	      0.88556855	      0.85965935	     -0.51508958	      0.98040869	      0.76248337	     -0.49946731	      0.95327494	      0.63680333	     -0.47496604	      0.79168167	      0.41167572	     -0.27572826	      0.72459958	      0.40477604	     -0.20297292	      0.65976793	      0.32751193	     -0.26904154	      1.02408185	      0.41302632	     -0.39463034	      0.98451459	      0.32872940	     -0.44500191	      0.97381274	      0.21939035	     -0.37150945	      0.45335516	      0.40770367	     -0.26497126	      0.50326271	      0.17981881	     -0.27374055	      0.46070904	      0.23723653	     -0.18439649	      0.83466489	      0.09932315	     -0.35616702	      1.06926184	      0.07782189	     -0.33963971	      0.99798699	      0.05442201	     -0.43040399	      0.90607417	      1.51155007	     -0.52578037	      0.91572026	      1.53556529	     -0.17936559	      0.96105902	      1.46780262	     -0.31975461	      0.83963154	      1.56350263	     -0.34974738	      0.89358961	      1.43140745	     -0.09872548	      0.87944893	      1.34160377	     -0.10030860	      0.81235288	      1.35105639	     -0.05797825	      0.78023710	      1.22173690	     -0.00920470	      0.73558306	      1.21478382	     -0.08162023	      0.87439443	      1.42442975	     -0.59974503	      0.86908022	      1.35291410	     -0.59452627	      0.77263865	      1.35887054	     -0.59454320	      0.73499445	      1.20378048	     -0.65584943	      0.68856080	      1.20231196	     -0.58168448	      0.88100624	      1.19732053	     -0.04381897	      1.00514303	      1.18338412	     -0.17337835	      1.00778229	      1.12874764	     -0.12307313	      0.82497901	      1.17590074	     -0.63069985	      0.96161191	      1.15240683	     -0.50799214	      0.95174015	      1.08697079	     -0.53701707
      1.45000000	      1.00988444	      8.61619089	      2.70430532	      0.91350799	      1.03967413	     -0.33504491	     10.27234371	     -5.51261493	      2.90443357	    -84.36827161	      3.61542100	     23.42043656	     13.15294236	     -2.45928584	    -41.42112079	     18.57946671	    -17.36994570	    -11.64821756	     -4.68152099	    -15.12305879	    -19.09941125	      5.29780912	    107.36160967	    110.68283687	    -18.62344750	    -25.14157790	      7.06648564	    107.59190933	     96.49300942	      0.00000000	      0.00000000	      0.00000000	      0.00000000	      0.00000000	      0.00000000	      0.00000000	      0.00000000	      0.90516648	      1.06151980	     -0.46235791	      0.92091778	      1.04264043	     -0.20086463	      0.72529646	      1.08610707	     -0.36133903	      0.73101074	      1.07444928	     -0.28113921	      0.87327104	      0.86481343	     -0.16574125	      0.92541477	      0.76243237	     -0.17862568	      0.86045143	      0.64646668	     -0.20175411	      0.88285897	      0.85636331	     -0.51575096	      0.97770589	      0.76004550	     -0.50039346	      0.95025961	      0.63304781	     -0.47597034	      0.80499146	      0.41121542	     -0.27622309	      0.73815307	      0.40495249	     -0.20283221	      0.67370189	      0.32737444	     -0.26881270	      1.01889622	      0.40856541	     -0.39638805	      0.97527626	      0.32527802	     -0.44651878	      0.96169837	      0.21658074	     -0.37276919	      0.46532886	      0.41035623	     -0.26393488	      0.51634387	      0.18267825	     -0.27183261	      0.47446504	      0.24049380	     -0.18228327	      0.81854826	      0.10001489	     -0.35677405	      1.05320811	      0.07668463	     -0.34006497	      0.98138583	      0.05382956	     -0.43119500	      0.90513052	      1.50539070	     -0.52685321	      0.91200825	      1.53090470	     -0.17860343	      0.96073487	      1.46463389	     -0.31941869	      0.83937841	      1.55972263	     -0.35107592	      0.88905182	      1.42550680	     -0.09916863	      0.87320996	      1.33546991	     -0.10223671	      0.80631310	      1.34515800	     -0.05975010	      0.77150673	      1.21643209	     -0.01264915	      0.72849380	      1.20989610	     -0.08562379	      0.87804636	      1.41441366	     -0.60067215	      0.87338623	      1.34257979	     -0.59346727	      0.77747317	      1.34656513	     -0.59856907	      0.74540317	      1.19022074	     -0.65869249	      0.69782393	      1.18746538	     -0.58550696	      0.87204604	      1.18660766	     -0.04445537	      0.99845929	      1.16337227	     -0.17046514	      0.99792904	      1.11109475	     -0.11804537	      0.83506946	      1.16240513	     -0.63280625	      0.97002866	      1.14029422	     -0.50643029	      0.96122599	      1.07497835	     -0.53602098
      1.45833300	      1.12952842	      8.74229390	      2.58132196	      0.91131199	      1.03594037	     -0.33434419	     12.13435338	     -5.49880656	      3.46311817	    -86.62948773	      4.57291605	     23.09024867	     13.06525558	     -2.89658944	    -42.78404781	     19.98684607	    -17.70162348	    -11.98915543	     -5.46265251	    -15.16674100	    -18.35952887	      5.32134515	    103.79328806	    112.14362359	    -16.54627160	    -25.40584040	      7.71635235	    105.64540664	     96.46378986	      0.00000000	      0.00000000	      0.00000000	      0.00000000	      0.00000000	      0.00000000	      0.00000000	      0.00000000	      0.90371907	      1.05762450	     -0.46249148	      0.91825099	      1.03936258	     -0.19975602	      0.72413766	      1.08279767	     -0.36025813	      0.72846546	      1.07105148	     -0.28028420	      0.87428360	      0.86200630	     -0.16583495	      0.93060806	      0.76096703	     -0.17867912	      0.86826763	      0.64426589	     -0.20276358	      0.88025102	      0.85343860	     -0.51663392	      0.97442658	      0.75557842	     -0.50202978	      0.94559262	      0.62862873	     -0.47632961	      0.81870526	      0.41110976	     -0.27636640	      0.75212629	      0.40531181	     -0.20250143	      0.68803390	      0.32743828	     -0.26839358	      1.01248527	      0.40378784	     -0.39793158	      0.96522226	      0.32151569	     -0.44785364	      0.94876345	      0.21376435	     -0.37379489	      0.47773730	      0.41163341	     -0.26304975	      0.53132256	      0.18452176	     -0.27012020	      0.48929077	      0.24231704	     -0.18055135	      0.80216362	      0.10058914	     -0.35736861	      1.03674346	      0.07599848	     -0.34048065	      0.96466689	      0.05347229	     -0.43189885	      0.90453132	      1.49987227	     -0.52755751	      0.90929968	      1.52687323	     -0.17817410	      0.96025313	      1.46147256	     -0.31910181	      0.83872598	      1.55620565	     -0.35202246	      0.88431470	      1.42120250	     -0.09969539	      0.86733863	      1.33080139	     -0.10427096	      0.80043383	      1.34044187	     -0.06211077	      0.76289337	      1.21199321	     -0.01655251	      0.72164595	      1.20598359	     -0.09007324	      0.88103160	      1.40611155	     -0.60059167	      0.87811379	      1.33357912	     -0.59197231	      0.78266405	      1.33577712	     -0.60170395	      0.75687823	      1.17767024	     -0.66095886	      0.70787798	      1.17341471	     -0.58896997	      0.86309216	      1.17693798	     -0.04477890	      0.99110960	      1.14326071	     -0.16718105	      0.98731029	      1.09373596	     -0.11249751	      0.84627225	      1.14994244	     -0.63379914	      0.97914707	      1.12862240	     -0.50450022	      0.97119898	      1.06337154	     -0.53461827
